<svg xmlns="http://www.w3.org/2000/svg" width="24" height="24" viewBox="0 0 24 24">
    <path fill="#404448" fill-rule="nonzero" stroke="#404448" d="M22.807 21.878l-5.346-5.346a9.343 9.343 0 0 0 2.302-6.152c0-5.175-4.21-9.38-9.38-9.38-5.176 0-9.38 4.21-9.38 9.38 0 5.171 4.21 9.381 9.38 9.381a9.343 9.343 0 0 0 6.151-2.302l5.346 5.346a.663.663 0 0 0 .464.195.66.66 0 0 0 .463-1.122zM2.315 10.38c0-4.448 3.62-8.063 8.063-8.063 4.449 0 8.063 3.62 8.063 8.063 0 4.444-3.614 8.069-8.063 8.069-4.444 0-8.063-3.62-8.063-8.069z"/>
</svg>
