<svg xmlns="http://www.w3.org/2000/svg" width="20" height="20" viewBox="0 0 20 20">
    <g fill="#FFF" fill-rule="nonzero">
        <path d="M0 20l1.4-4.97A9.937 9.937 0 0 1 .027 9.977C.026 4.476 4.506 0 10.013 0S20 4.475 20 9.976c0 5.501-4.48 9.977-9.987 9.977A9.982 9.982 0 0 1 5.13 18.68L0 20zm5.393-3.134l.305.186a8.283 8.283 0 0 0 4.315 1.208c4.573 0 8.293-3.716 8.293-8.284 0-4.567-3.72-8.284-8.293-8.284-4.573 0-8.293 3.717-8.293 8.284 0 1.592.453 3.138 1.31 4.47l.205.32-.806 2.862 2.964-.762z"/>
        <path d="M7.212 6.035L6.573 6a.79.79 0 0 0-.549.181c-.31.26-.805.761-.957 1.415-.227.974.124 2.167 1.031 3.36.908 1.193 2.599 3.102 5.589 3.917.963.263 1.721.086 2.306-.275a1.99 1.99 0 0 0 .898-1.262l.102-.46a.316.316 0 0 0-.186-.357l-2.159-.96a.339.339 0 0 0-.4.096l-.848 1.06a.248.248 0 0 1-.273.078c-.58-.197-2.525-.983-3.592-2.965a.23.23 0 0 1 .03-.263l.81-.904a.31.31 0 0 0 .055-.334l-.931-2.1a.33.33 0 0 0-.287-.193z"/>
    </g>
</svg>
