<svg xmlns="http://www.w3.org/2000/svg" width="16" height="16" viewBox="0 0 16 16">
    <g fill="#111" fill-rule="nonzero">
        <path d="M1 1v5h5V1H1zm0-1h5a1 1 0 0 1 1 1v5a1 1 0 0 1-1 1H1a1 1 0 0 1-1-1V1a1 1 0 0 1 1-1zM10 1v5h5V1h-5zm0-1h5a1 1 0 0 1 1 1v5a1 1 0 0 1-1 1h-5a1 1 0 0 1-1-1V1a1 1 0 0 1 1-1zM1 10v5h5v-5H1zm0-1h5a1 1 0 0 1 1 1v5a1 1 0 0 1-1 1H1a1 1 0 0 1-1-1v-5a1 1 0 0 1 1-1zM10 10v5h5v-5h-5zm0-1h5a1 1 0 0 1 1 1v5a1 1 0 0 1-1 1h-5a1 1 0 0 1-1-1v-5a1 1 0 0 1 1-1z"/>
    </g>
</svg>
